<?xml version="1.0" encoding="UTF-8" standalone="no"?>
<!DOCTYPE svg PUBLIC "-//W3C//DTD SVG 1.1//EN"
 "http://www.w3.org/Graphics/SVG/1.1/DTD/svg11.dtd">
<!-- Generated by graphviz version 2.43.0 (0)
 -->
<!-- Title: G Pages: 1 -->
<svg width="611pt" height="548pt"
 viewBox="0.00 0.00 610.77 548.00" xmlns="http://www.w3.org/2000/svg" xmlns:xlink="http://www.w3.org/1999/xlink">
<g id="graph0" class="graph" transform="scale(1 1) rotate(0) translate(4 544)">
<title>G</title><style>.edge>path:hover{stroke-width:8}</style>
<polygon fill="white" stroke="transparent" points="-4,4 -4,-544 606.77,-544 606.77,4 -4,4"/>
<!-- ArmActuator -->
<g id="node1" class="node">
<title>ArmActuator</title><style>.edge>path:hover{stroke-width:8}</style>
<ellipse fill="#bc2f2f" stroke="black" cx="193.57" cy="-306" rx="45.83" ry="18"/>
<text text-anchor="middle" x="193.57" y="-303.5" font-family="Helvetica,sans-Serif" font-size="10.00" fill="#ffffff">ArmActuator</text>
</g>
<!-- GripActuator -->
<g id="node3" class="node">
<title>GripActuator</title><style>.edge>path:hover{stroke-width:8}</style>
<ellipse fill="#9d8b43" stroke="black" cx="231.57" cy="-162" rx="45.83" ry="18"/>
<text text-anchor="middle" x="231.57" y="-159.5" font-family="Helvetica,sans-Serif" font-size="10.00" fill="#000000">GripActuator</text>
</g>
<!-- ArmActuator&#45;&gt;GripActuator -->
<g id="edge1" class="edge">
<title>ArmActuator&#45;&gt;GripActuator</title><style>.edge>path:hover{stroke-width:8}</style>
<path fill="none" stroke="black" d="M169.2,-290.55C150.81,-277.59 129.96,-257.24 137.57,-235"/>
</g>
<!-- GripMapping -->
<g id="node4" class="node">
<title>GripMapping</title><style>.edge>path:hover{stroke-width:8}</style>
<ellipse fill="#8b9d43" stroke="black" cx="212.57" cy="-234" rx="46.51" ry="18"/>
<text text-anchor="middle" x="212.57" y="-231.5" font-family="Helvetica,sans-Serif" font-size="10.00" fill="#000000">GripMapping</text>
</g>
<!-- ArmActuator&#45;&gt;GripMapping -->
<g id="edge2" class="edge">
<title>ArmActuator&#45;&gt;GripMapping</title><style>.edge>path:hover{stroke-width:8}</style>
<path fill="none" stroke="black" d="M198.17,-288.05C200.28,-280.26 202.85,-270.82 205.22,-262.08"/>
<polygon fill="#bc2f2f" stroke="black" points="208.64,-262.84 207.88,-252.28 201.88,-261.01 208.64,-262.84"/>
</g>
<!-- SMAgent -->
<g id="node5" class="node">
<title>SMAgent</title><style>.edge>path:hover{stroke-width:8}</style>
<ellipse fill="#679d43" stroke="black" cx="179.57" cy="-90" rx="35.14" ry="18"/>
<text text-anchor="middle" x="179.57" y="-87.5" font-family="Helvetica,sans-Serif" font-size="10.00" fill="#000000">SMAgent</text>
</g>
<!-- ArmActuator&#45;&gt;SMAgent -->
<g id="edge3" class="edge">
<title>ArmActuator&#45;&gt;SMAgent</title><style>.edge>path:hover{stroke-width:8}</style>
<path fill="none" stroke="black" d="M165.08,-291.6C149.75,-282.72 132.25,-269.47 123.57,-252 100.47,-205.54 135.28,-147.2 159.51,-115.04"/>
<polygon fill="#bc2f2f" stroke="black" points="162.33,-117.12 165.7,-107.08 156.8,-112.82 162.33,-117.12"/>
</g>
<!-- ArmMapping -->
<g id="node2" class="node">
<title>ArmMapping</title><style>.edge>path:hover{stroke-width:8}</style>
<ellipse fill="#ac7149" stroke="black" cx="194.57" cy="-378" rx="46.51" ry="18"/>
<text text-anchor="middle" x="194.57" y="-375.5" font-family="Helvetica,sans-Serif" font-size="10.00" fill="#ffffff">ArmMapping</text>
</g>
<!-- ArmMapping&#45;&gt;ArmActuator -->
<g id="edge4" class="edge">
<title>ArmMapping&#45;&gt;ArmActuator</title><style>.edge>path:hover{stroke-width:8}</style>
<path fill="none" stroke="black" d="M194.32,-359.7C194.21,-351.98 194.08,-342.71 193.96,-334.11"/>
<polygon fill="#ac7149" stroke="black" points="197.46,-334.05 193.81,-324.1 190.46,-334.15 197.46,-334.05"/>
</g>
<!-- GripActuator&#45;&gt;SMAgent -->
<g id="edge5" class="edge">
<title>GripActuator&#45;&gt;SMAgent</title><style>.edge>path:hover{stroke-width:8}</style>
<path fill="none" stroke="black" d="M219.25,-144.41C212.74,-135.66 204.64,-124.75 197.46,-115.08"/>
<polygon fill="#9d8b43" stroke="black" points="200.22,-112.93 191.45,-106.99 194.6,-117.1 200.22,-112.93"/>
</g>
<!-- GripMapping&#45;&gt;GripActuator -->
<g id="edge6" class="edge">
<title>GripMapping&#45;&gt;GripActuator</title><style>.edge>path:hover{stroke-width:8}</style>
<path fill="none" stroke="black" d="M217.17,-216.05C219.28,-208.26 221.85,-198.82 224.22,-190.08"/>
<polygon fill="#8b9d43" stroke="black" points="227.64,-190.84 226.88,-180.28 220.88,-189.01 227.64,-190.84"/>
</g>
<!-- SMMain -->
<g id="node9" class="node">
<title>SMMain</title><style>.edge>path:hover{stroke-width:8}</style>
<ellipse fill="#3a7888" stroke="black" cx="179.57" cy="-18" rx="32.93" ry="18"/>
<text text-anchor="middle" x="179.57" y="-15.5" font-family="Helvetica,sans-Serif" font-size="10.00" fill="#ffffff">SMMain</text>
</g>
<!-- SMAgent&#45;&gt;SMMain -->
<g id="edge7" class="edge">
<title>SMAgent&#45;&gt;SMMain</title><style>.edge>path:hover{stroke-width:8}</style>
<path fill="none" stroke="black" d="M179.57,-71.7C179.57,-63.98 179.57,-54.71 179.57,-46.11"/>
<polygon fill="#679d43" stroke="black" points="183.07,-46.1 179.57,-36.1 176.07,-46.1 183.07,-46.1"/>
</g>
<!-- SMController -->
<g id="node6" class="node">
<title>SMController</title><style>.edge>path:hover{stroke-width:8}</style>
<ellipse fill="#46a446" stroke="black" cx="380.57" cy="-234" rx="47.19" ry="18"/>
<text text-anchor="middle" x="380.57" y="-231.5" font-family="Helvetica,sans-Serif" font-size="10.00" fill="#ffffff">SMController</text>
</g>
<!-- SMController&#45;&gt;SMMain -->
<g id="edge8" class="edge">
<title>SMController&#45;&gt;SMMain</title><style>.edge>path:hover{stroke-width:8}</style>
<path fill="none" stroke="black" d="M411.88,-220.45C436.08,-208.55 464.12,-188.69 455.57,-163"/>
<path fill="none" stroke="black" d="M455.57,-161C432.32,-91.2 364.49,-135.06 305.57,-91"/>
</g>
<!-- SMEnv -->
<g id="node7" class="node">
<title>SMEnv</title><style>.edge>path:hover{stroke-width:8}</style>
<ellipse fill="#3db86e" stroke="black" cx="71.57" cy="-162" rx="29.37" ry="18"/>
<text text-anchor="middle" x="71.57" y="-159.5" font-family="Helvetica,sans-Serif" font-size="10.00" fill="#000000">SMEnv</text>
</g>
<!-- SMEnv&#45;&gt;SMAgent -->
<g id="edge9" class="edge">
<title>SMEnv&#45;&gt;SMAgent</title><style>.edge>path:hover{stroke-width:8}</style>
<path fill="none" stroke="black" d="M91.13,-148.32C107.6,-137.64 131.42,-122.2 150.19,-110.04"/>
<polygon fill="#3db86e" stroke="black" points="152.19,-112.91 158.68,-104.54 148.39,-107.04 152.19,-112.91"/>
</g>
<!-- SMEnv&#45;&gt;SMMain -->
<g id="edge10" class="edge">
<title>SMEnv&#45;&gt;SMMain</title><style>.edge>path:hover{stroke-width:8}</style>
<path fill="none" stroke="black" d="M50.61,-149.35C30.6,-136.54 4.83,-114.62 14.57,-91"/>
</g>
<!-- SMGraphs -->
<g id="node8" class="node">
<title>SMGraphs</title><style>.edge>path:hover{stroke-width:8}</style>
<ellipse fill="#49ac98" stroke="black" cx="504.57" cy="-306" rx="38.7" ry="18"/>
<text text-anchor="middle" x="504.57" y="-303.5" font-family="Helvetica,sans-Serif" font-size="10.00" fill="#000000">SMGraphs</text>
</g>
<!-- SMGraphs&#45;&gt;SMMain -->
<g id="edge11" class="edge">
<title>SMGraphs&#45;&gt;SMMain</title><style>.edge>path:hover{stroke-width:8}</style>
<path fill="none" stroke="black" d="M498.57,-287.99C489.21,-261.39 470.65,-208.28 455.57,-163"/>
</g>
<!-- SMPredict -->
<g id="node10" class="node">
<title>SMPredict</title><style>.edge>path:hover{stroke-width:8}</style>
<ellipse fill="#4c75b3" stroke="black" cx="371.57" cy="-306" rx="38.03" ry="18"/>
<text text-anchor="middle" x="371.57" y="-303.5" font-family="Helvetica,sans-Serif" font-size="10.00" fill="#ffffff">SMPredict</text>
</g>
<!-- SMPredict&#45;&gt;SMController -->
<g id="edge12" class="edge">
<title>SMPredict&#45;&gt;SMController</title><style>.edge>path:hover{stroke-width:8}</style>
<path fill="none" stroke="black" d="M373.79,-287.7C374.78,-279.98 375.98,-270.71 377.08,-262.11"/>
<polygon fill="#4c75b3" stroke="black" points="380.57,-262.47 378.37,-252.1 373.62,-261.58 380.57,-262.47"/>
</g>
<!-- SMSTM -->
<g id="node11" class="node">
<title>SMSTM</title><style>.edge>path:hover{stroke-width:8}</style>
<ellipse fill="#4c4cb3" stroke="black" cx="571.57" cy="-378" rx="31.4" ry="18"/>
<text text-anchor="middle" x="571.57" y="-375.5" font-family="Helvetica,sans-Serif" font-size="10.00" fill="#ffffff">SMSTM</text>
</g>
<!-- SMSTM&#45;&gt;SMController -->
<g id="edge13" class="edge">
<title>SMSTM&#45;&gt;SMController</title><style>.edge>path:hover{stroke-width:8}</style>
<path fill="none" stroke="black" d="M572.72,-359.97C573.1,-340.18 570.59,-307.7 552.57,-288 523.36,-256.08 475.42,-243.18 437.56,-238.07"/>
<polygon fill="#4c4cb3" stroke="black" points="437.52,-234.54 427.18,-236.83 436.69,-241.49 437.52,-234.54"/>
</g>
<!-- box2dsim -->
<g id="node12" class="node">
<title>box2dsim</title><style>.edge>path:hover{stroke-width:8}</style>
<ellipse fill="#6306ef" stroke="black" cx="119.57" cy="-450" rx="38.03" ry="18"/>
<text text-anchor="middle" x="119.57" y="-447.5" font-family="Helvetica,sans-Serif" font-size="10.00" fill="#ffffff">box2dsim</text>
</g>
<!-- box2dsim&#45;&gt;ArmActuator -->
<g id="edge14" class="edge">
<title>box2dsim&#45;&gt;ArmActuator</title><style>.edge>path:hover{stroke-width:8}</style>
<path fill="none" stroke="black" d="M119.57,-377C124.7,-355.78 142.1,-338.74 158.74,-326.79"/>
<polygon fill="#6306ef" stroke="black" points="160.97,-329.51 167.3,-321.01 157.05,-323.71 160.97,-329.51"/>
</g>
<!-- box2dsim&#45;&gt;ArmMapping -->
<g id="edge15" class="edge">
<title>box2dsim&#45;&gt;ArmMapping</title><style>.edge>path:hover{stroke-width:8}</style>
<path fill="none" stroke="black" d="M136.21,-433.46C146.17,-424.17 159.01,-412.19 170.1,-401.83"/>
<polygon fill="#6306ef" stroke="black" points="172.53,-404.36 177.45,-394.98 167.75,-399.24 172.53,-404.36"/>
</g>
<!-- box2dsim&#45;&gt;GripActuator -->
<g id="edge16" class="edge">
<title>box2dsim&#45;&gt;GripActuator</title><style>.edge>path:hover{stroke-width:8}</style>
<path fill="none" stroke="black" d="M119.57,-305C123.42,-273.11 127.17,-265.39 137.57,-235"/>
<path fill="none" stroke="black" d="M137.57,-233C145.98,-208.41 169.41,-190.93 190.76,-179.58"/>
<polygon fill="#6306ef" stroke="black" points="192.36,-182.7 199.74,-175.1 189.23,-176.44 192.36,-182.7"/>
</g>
<!-- box2dsim&#45;&gt;GripMapping -->
<g id="edge17" class="edge">
<title>box2dsim&#45;&gt;GripMapping</title><style>.edge>path:hover{stroke-width:8}</style>
<path fill="none" stroke="black" d="M119.57,-305C122.7,-279.08 146.36,-261.49 169.03,-250.43"/>
<polygon fill="#6306ef" stroke="black" points="170.63,-253.55 178.28,-246.22 167.73,-247.17 170.63,-253.55"/>
</g>
<!-- box2dsim&#45;&gt;SMEnv -->
<g id="edge18" class="edge">
<title>box2dsim&#45;&gt;SMEnv</title><style>.edge>path:hover{stroke-width:8}</style>
<path fill="none" stroke="black" d="M61.57,-233C54.82,-219.53 56.83,-202.89 60.77,-189.21"/>
<polygon fill="#6306ef" stroke="black" points="64.19,-190.03 64.03,-179.43 57.55,-187.81 64.19,-190.03"/>
</g>
<!-- box2dsim&#45;&gt;SMMain -->
<g id="edge19" class="edge">
<title>box2dsim&#45;&gt;SMMain</title><style>.edge>path:hover{stroke-width:8}</style>
<path fill="none" stroke="black" d="M117.34,-431.76C116.01,-417.43 115.31,-396.6 119.57,-379"/>
<path fill="none" stroke="black" d="M119.57,-377C126.88,-346.76 115.83,-337.89 119.57,-307"/>
<path fill="none" stroke="black" d="M119.57,-305C124.42,-264.89 79.68,-271.12 61.57,-235"/>
<path fill="none" stroke="black" d="M61.57,-233C44.77,-199.5 20.46,-200.01 14.57,-163"/>
</g>
<!-- box2dsim_envs -->
<g id="node13" class="node">
<title>box2dsim_envs</title><style>.edge>path:hover{stroke-width:8}</style>
<ellipse fill="#6c31c4" stroke="black" cx="53.57" cy="-522" rx="53.64" ry="18"/>
<text text-anchor="middle" x="53.57" y="-519.5" font-family="Helvetica,sans-Serif" font-size="10.00" fill="#ffffff">box2dsim.envs</text>
</g>
<!-- box2dsim_envs&#45;&gt;SMMain -->
<g id="edge20" class="edge">
<title>box2dsim_envs&#45;&gt;SMMain</title><style>.edge>path:hover{stroke-width:8}</style>
<path fill="none" stroke="black" d="M45.68,-503.93C34.28,-477.67 14.57,-425.53 14.57,-379 14.57,-379 14.57,-379 14.57,-305 14.57,-241.89 24.48,-225.33 14.57,-163"/>
<path fill="none" stroke="black" d="M14.57,-161C9.3,-130.34 2.71,-119.76 14.57,-91"/>
<path fill="none" stroke="black" d="M14.57,-89C33.75,-42.49 94.51,-26.81 136.68,-21.57"/>
<polygon fill="#6c31c4" stroke="black" points="137.14,-25.04 146.7,-20.47 136.38,-18.08 137.14,-25.04"/>
</g>
<!-- box2dsim_envs&#45;&gt;box2dsim -->
<g id="edge21" class="edge">
<title>box2dsim_envs&#45;&gt;box2dsim</title><style>.edge>path:hover{stroke-width:8}</style>
<path fill="none" stroke="black" d="M69.21,-504.41C77.63,-495.48 88.16,-484.31 97.41,-474.5"/>
<polygon fill="#6c31c4" stroke="black" points="100.18,-476.67 104.49,-466.99 95.09,-471.86 100.18,-476.67"/>
</g>
<!-- mkvideo -->
<g id="node14" class="node">
<title>mkvideo</title><style>.edge>path:hover{stroke-width:8}</style>
<ellipse fill="#a253b6" stroke="black" cx="487.57" cy="-378" rx="34.96" ry="18"/>
<text text-anchor="middle" x="487.57" y="-375.5" font-family="Helvetica,sans-Serif" font-size="10.00" fill="#ffffff">mkvideo</text>
</g>
<!-- mkvideo&#45;&gt;SMGraphs -->
<g id="edge22" class="edge">
<title>mkvideo&#45;&gt;SMGraphs</title><style>.edge>path:hover{stroke-width:8}</style>
<path fill="none" stroke="black" d="M491.68,-360.05C493.58,-352.26 495.87,-342.82 497.99,-334.08"/>
<polygon fill="#a253b6" stroke="black" points="501.41,-334.82 500.37,-324.28 494.61,-333.17 501.41,-334.82"/>
</g>
<!-- params -->
<g id="node15" class="node">
<title>params</title><style>.edge>path:hover{stroke-width:8}</style>
<ellipse fill="#f910cb" stroke="black" cx="371.57" cy="-378" rx="31.4" ry="18"/>
<text text-anchor="middle" x="371.57" y="-375.5" font-family="Helvetica,sans-Serif" font-size="10.00" fill="#ffffff">params</text>
</g>
<!-- params&#45;&gt;ArmActuator -->
<g id="edge23" class="edge">
<title>params&#45;&gt;ArmActuator</title><style>.edge>path:hover{stroke-width:8}</style>
<path fill="none" stroke="black" d="M346.44,-367.12C317.27,-355.65 268.76,-336.57 234.2,-322.98"/>
<polygon fill="#f910cb" stroke="black" points="235.44,-319.71 224.86,-319.3 232.88,-326.22 235.44,-319.71"/>
</g>
<!-- params&#45;&gt;GripActuator -->
<g id="edge24" class="edge">
<title>params&#45;&gt;GripActuator</title><style>.edge>path:hover{stroke-width:8}</style>
<path fill="none" stroke="black" d="M305.57,-233C295.52,-213.67 278,-196.74 262.54,-184.37"/>
<polygon fill="#f910cb" stroke="black" points="264.28,-181.29 254.22,-177.98 260.02,-186.84 264.28,-181.29"/>
</g>
<!-- params&#45;&gt;GripMapping -->
<g id="edge25" class="edge">
<title>params&#45;&gt;GripMapping</title><style>.edge>path:hover{stroke-width:8}</style>
<path fill="none" stroke="black" d="M355.97,-362.21C341.98,-348.55 321.29,-327.36 305.57,-307"/>
<path fill="none" stroke="black" d="M305.57,-305C289.71,-284.47 266.38,-266.94 247.05,-254.55"/>
<polygon fill="#f910cb" stroke="black" points="248.84,-251.53 238.5,-249.23 245.14,-257.48 248.84,-251.53"/>
</g>
<!-- params&#45;&gt;SMAgent -->
<g id="edge26" class="edge">
<title>params&#45;&gt;SMAgent</title><style>.edge>path:hover{stroke-width:8}</style>
<path fill="none" stroke="black" d="M305.57,-233C291.21,-205.4 316.51,-192.12 305.57,-163"/>
<path fill="none" stroke="black" d="M305.57,-161C292.7,-126.76 253.45,-108.8 222.13,-99.69"/>
<polygon fill="#f910cb" stroke="black" points="222.86,-96.26 212.29,-97.03 221.03,-103.02 222.86,-96.26"/>
</g>
<!-- params&#45;&gt;SMController -->
<g id="edge27" class="edge">
<title>params&#45;&gt;SMController</title><style>.edge>path:hover{stroke-width:8}</style>
<path fill="none" stroke="black" d="M389.43,-362.86C400.12,-353.21 412.72,-339.41 418.57,-324 424.25,-309.04 423.46,-303.23 418.57,-288 415.24,-277.65 409.07,-267.61 402.65,-259.1"/>
<polygon fill="#f910cb" stroke="black" points="405.24,-256.74 396.24,-251.15 399.79,-261.14 405.24,-256.74"/>
</g>
<!-- params&#45;&gt;SMEnv -->
<g id="edge28" class="edge">
<title>params&#45;&gt;SMEnv</title><style>.edge>path:hover{stroke-width:8}</style>
<path fill="none" stroke="black" d="M305.57,-305C286.55,-280.38 319.92,-262.6 305.57,-235"/>
<path fill="none" stroke="black" d="M305.57,-233C296.3,-215.18 172.59,-185.4 108.91,-171.12"/>
<polygon fill="#f910cb" stroke="black" points="109.38,-167.64 98.86,-168.88 107.86,-174.47 109.38,-167.64"/>
</g>
<!-- params&#45;&gt;SMGraphs -->
<g id="edge29" class="edge">
<title>params&#45;&gt;SMGraphs</title><style>.edge>path:hover{stroke-width:8}</style>
<path fill="none" stroke="black" d="M393.83,-365.28C414.85,-354.22 446.67,-337.48 470.81,-324.77"/>
<polygon fill="#f910cb" stroke="black" points="472.76,-327.7 479.97,-319.94 469.49,-321.5 472.76,-327.7"/>
</g>
<!-- params&#45;&gt;SMMain -->
<g id="edge30" class="edge">
<title>params&#45;&gt;SMMain</title><style>.edge>path:hover{stroke-width:8}</style>
<path fill="none" stroke="black" d="M305.57,-161C294.63,-131.88 330.48,-109.63 305.57,-91"/>
<path fill="none" stroke="black" d="M305.57,-89C276.47,-67.24 239.86,-47.65 213.61,-34.77"/>
<polygon fill="#f910cb" stroke="black" points="214.97,-31.54 204.44,-30.33 211.92,-37.84 214.97,-31.54"/>
</g>
<!-- params&#45;&gt;SMPredict -->
<g id="edge31" class="edge">
<title>params&#45;&gt;SMPredict</title><style>.edge>path:hover{stroke-width:8}</style>
<path fill="none" stroke="black" d="M371.57,-359.7C371.57,-351.98 371.57,-342.71 371.57,-334.11"/>
<polygon fill="#f910cb" stroke="black" points="375.07,-334.1 371.57,-324.1 368.07,-334.1 375.07,-334.1"/>
</g>
<!-- stm -->
<g id="node16" class="node">
<title>stm</title><style>.edge>path:hover{stroke-width:8}</style>
<ellipse fill="#ce3b76" stroke="black" cx="269.57" cy="-450" rx="27" ry="18"/>
<text text-anchor="middle" x="269.57" y="-447.5" font-family="Helvetica,sans-Serif" font-size="10.00" fill="#ffffff">stm</text>
</g>
<!-- stm&#45;&gt;ArmMapping -->
<g id="edge32" class="edge">
<title>stm&#45;&gt;ArmMapping</title><style>.edge>path:hover{stroke-width:8}</style>
<path fill="none" stroke="black" d="M254.39,-434.83C244.21,-425.33 230.57,-412.6 218.89,-401.7"/>
<polygon fill="#ce3b76" stroke="black" points="221.25,-399.12 211.55,-394.85 216.48,-404.24 221.25,-399.12"/>
</g>
<!-- stm&#45;&gt;GripMapping -->
<g id="edge33" class="edge">
<title>stm&#45;&gt;GripMapping</title><style>.edge>path:hover{stroke-width:8}</style>
<path fill="none" stroke="black" d="M269.9,-431.92C269.92,-401.82 267.49,-337.8 248.57,-288 244.81,-278.12 238.89,-268.28 232.92,-259.8"/>
<polygon fill="#ce3b76" stroke="black" points="235.54,-257.46 226.77,-251.52 229.92,-261.63 235.54,-257.46"/>
</g>
<!-- stm&#45;&gt;SMSTM -->
<g id="edge34" class="edge">
<title>stm&#45;&gt;SMSTM</title><style>.edge>path:hover{stroke-width:8}</style>
<path fill="none" stroke="black" d="M296.04,-445.46C343.82,-438.66 447.35,-422.12 531.57,-396 533.82,-395.3 536.11,-394.52 538.41,-393.69"/>
<polygon fill="#ce3b76" stroke="black" points="539.7,-396.94 547.75,-390.05 537.16,-390.42 539.7,-396.94"/>
</g>
</g>
</svg>
